 <svg version="1.0" xmlns="http://www.w3.org/2000/svg" width="700.000000pt" height="700.000000pt" viewBox="0 0 700.000000 700.000000" preserveAspectRatio="xMidYMid meet">
<metadata>
Created by potrace 1.12, written by Peter Selinger 2001-2015
</metadata>
<g transform="translate(0.000000,700.000000) scale(0.100000,-0.100000)" fill="#000000" stroke="none">
<path d="M560 3977 c0 -7 6 -36 14 -63 8 -27 53 -202 101 -389 47 -187 91
-357 96 -377 l10 -38 109 0 c61 0 110 3 110 6 0 4 27 111 59 238 32 127 67
267 76 310 l18 79 78 -309 c43 -170 78 -312 79 -316 0 -5 49 -8 109 -8 96 0
110 2 115 18 3 9 46 179 96 377 50 198 98 382 106 409 23 80 25 77 -78 74
l-92 -3 -33 -140 c-28 -120 -95 -421 -109 -493 -6 -29 -24 -19 -24 14 0 13
-30 140 -66 282 -37 141 -71 276 -77 300 l-10 42 -88 0 c-48 0 -90 -4 -93 -8
-9 -16 -146 -548 -152 -595 -4 -26 -10 -50 -15 -52 -4 -3 -13 21 -19 52 -6 32
-40 180 -74 328 l-62 270 -92 3 c-72 2 -92 0 -92 -11z"></path>
<path d="M2600 3986 c0 -3 0 -201 0 -438 l-1 -433 228 0 c215 0 231 1 275 22
97 47 147 126 148 231 0 99 -30 149 -116 192 -21 10 -31 19 -22 20 29 0 95 72
107 115 36 130 -15 230 -136 270 -48 16 -94 20 -270 23 -117 2 -213 1 -213 -2z
m355 -157 c54 -14 77 -37 78 -82 2 -76 -49 -107 -175 -107 l-68 0 0 100 0 100
61 0 c33 0 80 -5 104 -11z m40 -353 c41 -18 55 -42 55 -99 0 -83 -56 -117
-194 -117 l-66 0 0 115 0 115 85 0 c51 0 99 -6 120 -14z"></path>
<path d="M4800 3903 c-43 -114 -43 -115 -95 -149 -48 -30 -52 -36 -51 -71 1
-37 2 -38 44 -41 l42 -3 0 -177 c1 -190 9 -248 42 -295 45 -62 165 -87 287
-57 57 14 65 26 59 101 -3 40 -5 44 -28 42 -109 -10 -132 -7 -151 16 -17 21
-19 42 -19 197 l0 173 93 3 92 3 3 67 3 67 -93 3 -93 3 -5 70 -5 70 -58 3
c-55 3 -58 2 -67 -25z"></path>
<path d="M2047 3790 c-93 -24 -165 -83 -206 -170 -23 -50 -26 -67 -26 -175 0
-134 13 -178 74 -248 86 -97 308 -132 459 -72 l40 17 4 66 c2 37 2 69 0 72 -1
2 -24 -4 -50 -14 -28 -11 -85 -20 -142 -23 -83 -4 -99 -2 -128 16 -39 25 -72
76 -72 113 l0 28 217 2 216 3 -2 75 c-1 41 -8 98 -16 126 -19 67 -79 135 -146
163 -58 25 -165 35 -222 21z m163 -157 c29 -26 55 -94 42 -107 -9 -9 -240 -7
-246 2 -11 18 16 82 45 106 44 37 117 37 159 -1z"></path>
<path d="M3551 3780 c-41 -11 -85 -27 -97 -35 l-23 -15 33 -57 c18 -32 37 -57
42 -56 5 1 29 10 54 19 25 10 75 18 112 18 80 1 106 -17 115 -81 l5 -40 -103
-6 c-175 -11 -261 -47 -301 -128 -32 -63 -20 -168 25 -233 64 -91 273 -93 356
-2 14 14 28 26 33 26 4 0 15 -18 24 -40 l17 -41 64 3 64 3 -1 250 c0 154 -5
264 -12 288 -14 47 -82 111 -134 127 -72 22 -192 22 -273 0z m237 -402 c5 -58
-24 -107 -76 -130 -112 -50 -200 38 -124 123 31 35 74 48 147 46 l50 -2 3 -37z"></path>
<path d="M4470 3787 c-19 -6 -59 -34 -88 -62 l-52 -52 -16 54 -15 53 -70 0
-69 0 0 -335 0 -336 93 3 92 3 5 205 c4 174 8 210 23 233 25 38 72 60 147 66
l65 6 8 74 c4 41 6 80 3 87 -6 17 -75 17 -126 1z"></path>
<path d="M5449 3787 c-161 -46 -236 -166 -227 -366 6 -147 55 -234 161 -285
97 -47 264 -52 374 -11 l41 16 4 67 c2 37 2 69 1 71 -2 3 -27 -4 -56 -15 -39
-14 -78 -19 -154 -19 -94 0 -103 2 -128 25 -30 27 -55 78 -55 110 0 19 6 20
215 20 l215 0 0 79 c0 193 -99 305 -278 317 -39 2 -87 -2 -113 -9z m172 -155
c24 -22 32 -37 33 -68 l1 -39 -114 -3 c-63 -1 -118 1 -122 5 -15 15 11 81 42
107 44 38 117 37 160 -2z"></path>
<path d="M6307 3788 c-22 -6 -61 -31 -92 -60 -37 -33 -56 -45 -59 -36 -3 7
-10 30 -16 51 l-12 37 -69 0 -69 0 0 -335 0 -335 95 0 95 0 0 196 c0 159 3
202 16 230 23 49 75 77 153 83 l66 6 8 73 c5 40 6 79 3 87 -6 17 -60 18 -119
3z"></path>
</g>
</svg>