 <svg version="1.0" xmlns="http://www.w3.org/2000/svg" width="700.000000pt" height="700.000000pt" viewBox="0 0 700.000000 700.000000" preserveAspectRatio="xMidYMid meet">
<metadata>
Created by potrace 1.12, written by Peter Selinger 2001-2015
</metadata>
<g transform="translate(0.000000,700.000000) scale(0.100000,-0.100000)" fill="#000000" stroke="none">
<path d="M3979 6396 c-25 -7 -70 -29 -100 -48 -64 -42 -305 -284 -343 -347
-71 -112 -75 -265 -11 -392 10 -19 358 -376 774 -794 l756 -760 -2380 -5
-2380 -5 -57 -23 c-81 -33 -160 -108 -200 -190 l-33 -66 -3 -239 c-3 -221 -2
-242 18 -302 38 -114 121 -203 232 -248 l53 -22 2383 -5 2382 -5 -765 -765
c-876 -876 -820 -809 -820 -985 0 -145 19 -179 204 -368 84 -86 168 -162 201
-181 112 -68 245 -74 367 -17 65 30 126 90 1370 1334 1249 1249 1303 1305
1335 1372 30 64 33 78 33 165 0 87 -3 101 -33 165 -32 67 -86 123 -1335 1372
-1251 1252 -1305 1303 -1372 1334 -57 27 -84 33 -150 36 -45 1 -100 -3 -126
-11z"></path>
</g>
</svg>