 <svg version="1.0" xmlns="http://www.w3.org/2000/svg" width="700.000000pt" height="700.000000pt" viewBox="0 0 700.000000 700.000000" preserveAspectRatio="xMidYMid meet">
<metadata>
Created by potrace 1.12, written by Peter Selinger 2001-2015
</metadata>
<g transform="translate(0.000000,700.000000) scale(0.100000,-0.100000)" fill="#000000" stroke="none">
<path d="M4835 6116 c-66 -16 -89 -30 -118 -69 -43 -58 -47 -86 -47 -371 0
-242 -2 -275 -19 -311 -22 -49 -53 -78 -106 -102 -35 -16 -73 -18 -320 -18
-267 0 -282 -1 -320 -21 -87 -47 -105 -92 -108 -267 -2 -143 5 -169 61 -230
48 -51 102 -59 390 -55 228 2 261 1 297 -15 53 -24 84 -53 106 -102 17 -36 19
-69 19 -310 0 -166 4 -285 11 -310 7 -23 28 -57 53 -81 49 -49 103 -64 230
-64 158 0 239 45 270 151 14 46 16 87 10 284 -8 259 1 315 56 379 59 66 83 71
376 67 297 -3 329 2 385 58 48 48 59 91 59 241 -1 180 -29 232 -146 266 -42
12 -101 14 -306 12 -240 -3 -255 -2 -298 18 -54 25 -83 55 -106 109 -15 34
-18 79 -19 315 -1 265 -2 277 -24 323 -28 57 -58 82 -124 102 -60 18 -192 18
-262 1z"></path>
<path d="M1190 6105 c-127 -19 -170 -35 -216 -80 -54 -54 -72 -123 -83 -312
-10 -175 -6 -306 15 -503 27 -254 62 -403 134 -575 51 -122 95 -267 119 -400
43 -229 73 -307 164 -417 67 -82 96 -140 137 -281 44 -153 72 -207 152 -290
54 -56 81 -97 126 -186 48 -96 72 -130 147 -210 50 -53 120 -139 157 -192 97
-136 505 -539 643 -634 55 -38 135 -103 177 -146 64 -64 96 -86 197 -138 91
-46 139 -78 195 -130 90 -84 97 -88 282 -151 164 -56 198 -73 298 -154 88 -70
156 -95 398 -145 205 -43 304 -73 460 -140 115 -49 221 -74 435 -101 226 -29
465 -40 613 -29 207 15 276 45 322 139 47 94 50 127 55 620 5 484 1 546 -37
620 -37 72 -80 102 -256 175 -122 51 -169 62 -329 75 -66 5 -181 23 -255 39
-224 50 -349 64 -490 58 -210 -10 -268 -36 -372 -174 -26 -35 -80 -87 -120
-117 -82 -61 -121 -100 -166 -167 -40 -60 -80 -93 -137 -114 -61 -24 -231 -16
-328 15 -59 18 -79 32 -161 109 -59 56 -122 103 -172 131 -122 66 -180 109
-291 212 -56 53 -137 120 -180 151 -91 64 -99 72 -184 192 -35 50 -96 124
-135 165 -94 99 -142 162 -205 268 -29 48 -80 116 -112 152 -33 36 -72 85 -88
109 -36 56 -71 203 -71 302 0 120 30 172 142 249 63 43 114 95 158 160 35 53
86 102 160 154 64 46 98 102 117 192 19 89 19 271 0 370 -8 43 -35 211 -60
373 -40 256 -52 314 -92 431 -81 239 -117 287 -242 324 -47 14 -117 16 -495
15 -297 -1 -469 -5 -526 -14z"></path>
</g>
</svg>